<svg width="1280" height="427" viewBox="0 0 1280 427" fill="none" xmlns="http://www.w3.org/2000/svg">
<g clip-path="url(#clip0)">
<rect width="1280" height="427" fill="#1A2A34"/>
<path d="M853.714 411.369L855.095 424.222L869.432 422.968L870.813 435.82L885.15 434.566L886.531 447.418" stroke="#E25C5D" stroke-width="8" stroke-linecap="round" stroke-linejoin="round"/>
<path d="M640.877 434.974L628.104 432.985L625.609 447.158L612.836 445.17L610.341 459.343L597.569 457.355" stroke="#E25C5D" stroke-width="8" stroke-linecap="round" stroke-linejoin="round"/>
<path d="M444.34 454.987C439.774 455.943 435.017 455.888 430.483 454.825C425.949 453.763 421.773 451.726 418.316 448.89C414.86 446.054 412.227 442.505 410.645 438.55C409.064 434.595 408.582 430.353 409.24 426.19" stroke="#F7B93E" stroke-width="8"/>
<path d="M975.852 410.718C973.582 401.875 979.74 393.046 989.606 391C999.473 388.954 1009.31 394.464 1011.58 403.308C1013.85 412.151 1007.7 420.98 997.829 423.026C987.962 425.073 978.123 419.562 975.852 410.718Z" stroke="#F7B93E" stroke-width="8"/>
<ellipse rx="18.2454" ry="16.5324" transform="matrix(-0.979161 0.203086 -0.248681 -0.968585 770.916 430.279)" stroke="#F7B93E" stroke-width="8"/>
<ellipse rx="18.2454" ry="16.5324" transform="matrix(-0.979161 0.203086 -0.248681 -0.968585 167.588 235.755)" stroke="#E25C5D" stroke-width="8"/>
<ellipse rx="18.2454" ry="16.5324" transform="matrix(-0.979161 0.203086 -0.248681 -0.968585 806.976 312.718)" stroke="#3D81F5" stroke-width="8"/>
<ellipse rx="7.43475" ry="8.02882" transform="matrix(-0.425493 -0.904962 0.935143 -0.35427 1133.55 369.588)" fill="#F7B93E"/>
<ellipse rx="17.6043" ry="17.2135" transform="matrix(0.80553 -0.592555 0.674922 0.737889 1109.82 163.781)" stroke="#C53DC5" stroke-width="8"/>
<ellipse rx="16.8764" ry="17.9278" transform="matrix(-0.51706 -0.855949 0.899283 -0.437367 2.76691 182.159)" stroke="#F7B93E" stroke-width="8"/>
<ellipse rx="16.8764" ry="17.9278" transform="matrix(-0.51706 -0.855949 0.899283 -0.437367 1278.28 27.4608)" stroke="#E25C5D" stroke-width="8"/>
<ellipse rx="16.8764" ry="17.9278" transform="matrix(-0.51706 -0.855949 0.899283 -0.437367 522.808 348.277)" stroke="#E25C5D" stroke-width="8"/>
<ellipse rx="7.97656" ry="7.49079" transform="matrix(-0.9093 -0.416141 0.495409 -0.86866 306.963 257.569)" fill="#F7B93E"/>
<ellipse rx="7.97656" ry="7.49079" transform="matrix(-0.9093 -0.416141 0.495409 -0.86866 414.835 365.333)" fill="#E25C5D"/>
<ellipse rx="7.88712" ry="7.58491" transform="matrix(0.85442 0.519583 -0.603679 0.797227 1266.45 213.623)" fill="#C53DC5"/>
<ellipse rx="7.88712" ry="7.58491" transform="matrix(0.85442 0.519583 -0.603679 0.797227 934.072 395.036)" fill="#C53DC5"/>
<ellipse rx="18.2648" ry="16.511" transform="matrix(0.983754 -0.179521 0.220187 0.975458 282.919 396.777)" stroke="#C53DC5" stroke-width="8"/>
<ellipse rx="7.70579" ry="7.76906" transform="matrix(-0.71513 0.698992 -0.77242 -0.635113 1113.11 266.654)" fill="#E25C5D"/>
<ellipse rx="7.70579" ry="7.76906" transform="matrix(-0.71513 0.698992 -0.77242 -0.635113 526.289 416.515)" fill="#F7B93E"/>
<ellipse rx="7.31235" ry="8.14046" transform="matrix(-0.108878 -0.994055 0.996053 -0.0887624 54.4201 374.082)" fill="#C53DC5"/>
<path d="M1196.1 126.113L1209.86 122.292L1205.61 109.957L1219.38 106.136L1215.13 93.8005L1228.89 89.9793" stroke="#E25C5D" stroke-width="8" stroke-linecap="round" stroke-linejoin="round"/>
<path d="M60.2912 106.517L74.0544 102.696L69.809 90.3609L83.5722 86.5397L79.3268 74.2045L93.09 70.3833" stroke="#E25C5D" stroke-width="8" stroke-linecap="round" stroke-linejoin="round"/>
<path d="M-38.4266 274.842L-32.5118 286.61L-19.3792 281.293L-13.4644 293.061L-0.331805 287.744L5.58299 299.512" stroke="#C53DC5" stroke-width="8" stroke-linecap="round" stroke-linejoin="round"/>
<path d="M656.803 377.735L662.718 389.503L675.85 384.186L681.765 395.954L694.898 390.637L700.812 402.405" stroke="#C53DC5" stroke-width="8" stroke-linecap="round" stroke-linejoin="round"/>
<path d="M1235.61 252L1241.52 263.768L1254.66 258.451L1260.57 270.219L1273.7 264.901L1279.62 276.669" stroke="#3D81F5" stroke-width="8" stroke-linecap="round" stroke-linejoin="round"/>
<path d="M1069.69 415.714L1077.48 426.568L1089.6 419.572L1097.39 430.426L1109.5 423.43L1117.29 434.284" stroke="#C53DC5" stroke-width="8" stroke-linecap="round" stroke-linejoin="round"/>
<path d="M143.845 316.137L146.284 303.407L132.089 301.236L134.528 288.507L120.333 286.335L122.772 273.606" stroke="#F7B93E" stroke-width="8" stroke-linecap="round" stroke-linejoin="round"/>
<path d="M22.027 61.3302C17.3499 61.0482 12.8213 59.7487 8.83279 57.5442C4.84432 55.3396 1.51617 52.2963 -0.863761 48.6776C-3.24369 45.0589 -4.60372 40.9737 -4.82619 36.7755C-5.04866 32.5773 -4.12687 28.3925 -2.14057 24.5831" stroke="#C53DC5" stroke-width="8"/>
<path d="M9.63707 419.627C11.4029 423.519 12.0841 427.739 11.6217 431.922C11.1593 436.105 9.56719 440.125 6.98319 443.635C4.39918 447.145 0.901067 450.039 -3.20854 452.066C-7.31815 454.093 -11.9155 455.192 -16.6028 455.268" stroke="#F7B93E" stroke-width="8"/>
<path d="M1204.57 282.166C1206.33 286.058 1207.01 290.278 1206.55 294.461C1206.09 298.644 1204.5 302.665 1201.91 306.175C1199.33 309.685 1195.83 312.578 1191.72 314.605C1187.61 316.632 1183.01 317.731 1178.33 317.808" stroke="#F7B93E" stroke-width="8"/>
<path d="M1221.43 417.118C1223.13 413.202 1225.88 409.716 1229.42 406.962C1232.97 404.209 1237.21 402.27 1241.78 401.314C1246.34 400.359 1251.1 400.415 1255.63 401.477C1260.17 402.54 1264.34 404.578 1267.8 407.414" stroke="#E25C5D" stroke-width="8"/>
<path d="M152.652 398.995C156.893 400.782 160.583 403.469 163.404 406.824C166.224 410.178 168.089 414.099 168.839 418.247C169.588 422.396 169.198 426.646 167.704 430.632C166.209 434.617 163.654 438.217 160.26 441.121" stroke="#E25C5D" stroke-width="8"/>
<path d="M93.0251 408.584C96.0825 403.141 103.918 403.141 106.975 408.584L117.647 427.582C120.643 432.915 116.789 439.5 110.672 439.5H89.3278C83.2112 439.5 79.3573 432.915 82.3529 427.582L93.0251 408.584Z" stroke="#F7B93E" stroke-width="8"/>
<path d="M1057.45 302.821C1057.98 299.744 1061.67 298.426 1064.02 300.474L1090.99 323.935C1093.3 325.942 1092.59 329.691 1089.71 330.72L1056.74 342.498C1053.86 343.527 1050.94 341.074 1051.45 338.059L1057.45 302.821Z" stroke="#F7B93E" stroke-width="8"/>
<rect x="226.57" y="303.998" width="35" height="35" rx="6" transform="rotate(18.6052 226.57 303.998)" stroke="#3D81F5" stroke-width="8"/>
<rect x="55.1666" y="202" width="35" height="35" rx="6" transform="rotate(18.6052 55.1666 202)" stroke="#C53DC5" stroke-width="8"/>
<rect x="961.167" y="263" width="35" height="35" rx="6" transform="rotate(18.6052 961.167 263)" stroke="#3D81F5" stroke-width="8"/>
<path d="M391.094 200.898L403.984 158.125H417.031L397.227 215H385L365.273 158.125H378.281L391.094 200.898ZM444.375 215C443.854 213.984 443.477 212.721 443.242 211.211C440.508 214.258 436.953 215.781 432.578 215.781C428.438 215.781 425 214.583 422.266 212.188C419.557 209.792 418.203 206.771 418.203 203.125C418.203 198.646 419.857 195.208 423.164 192.812C426.497 190.417 431.302 189.206 437.578 189.18H442.773V186.758C442.773 184.805 442.266 183.242 441.25 182.07C440.26 180.898 438.685 180.312 436.523 180.312C434.622 180.312 433.125 180.768 432.031 181.68C430.964 182.591 430.43 183.841 430.43 185.43H419.141C419.141 182.982 419.896 180.716 421.406 178.633C422.917 176.549 425.052 174.922 427.812 173.75C430.573 172.552 433.672 171.953 437.109 171.953C442.318 171.953 446.445 173.268 449.492 175.898C452.565 178.503 454.102 182.174 454.102 186.914V205.234C454.128 209.245 454.688 212.279 455.781 214.336V215H444.375ZM435.039 207.148C436.706 207.148 438.242 206.784 439.648 206.055C441.055 205.299 442.096 204.297 442.773 203.047V195.781H438.555C432.904 195.781 429.896 197.734 429.531 201.641L429.492 202.305C429.492 203.711 429.987 204.87 430.977 205.781C431.966 206.693 433.32 207.148 435.039 207.148ZM474.688 215H463.359V155H474.688V215ZM495.938 215H484.609V155H495.938V215ZM503.516 193.555C503.516 186.966 504.987 181.719 507.93 177.812C510.898 173.906 514.948 171.953 520.078 171.953C524.193 171.953 527.591 173.49 530.273 176.562V155H541.602V215H531.406L530.859 210.508C528.047 214.023 524.427 215.781 520 215.781C515.026 215.781 511.029 213.828 508.008 209.922C505.013 205.99 503.516 200.534 503.516 193.555ZM514.805 194.375C514.805 198.333 515.495 201.367 516.875 203.477C518.255 205.586 520.26 206.641 522.891 206.641C526.38 206.641 528.841 205.169 530.273 202.227V185.547C528.867 182.604 526.432 181.133 522.969 181.133C517.526 181.133 514.805 185.547 514.805 194.375ZM569.805 215.781C563.607 215.781 558.555 213.88 554.648 210.078C550.768 206.276 548.828 201.211 548.828 194.883V193.789C548.828 189.544 549.648 185.755 551.289 182.422C552.93 179.062 555.247 176.484 558.242 174.688C561.263 172.865 564.701 171.953 568.555 171.953C574.336 171.953 578.88 173.776 582.188 177.422C585.521 181.068 587.188 186.237 587.188 192.93V197.539H560.273C560.638 200.299 561.732 202.513 563.555 204.18C565.404 205.846 567.734 206.68 570.547 206.68C574.896 206.68 578.294 205.104 580.742 201.953L586.289 208.164C584.596 210.56 582.305 212.435 579.414 213.789C576.523 215.117 573.32 215.781 569.805 215.781ZM568.516 181.094C566.276 181.094 564.453 181.849 563.047 183.359C561.667 184.87 560.781 187.031 560.391 189.844H576.094V188.945C576.042 186.445 575.365 184.518 574.062 183.164C572.76 181.784 570.911 181.094 568.516 181.094ZM608.906 201.211L616.758 172.734H628.555L614.297 215H603.516L589.258 172.734H601.055L608.906 201.211ZM645.469 215H634.141V172.734H645.469V215ZM633.477 161.797C633.477 160.104 634.036 158.711 635.156 157.617C636.302 156.523 637.852 155.977 639.805 155.977C641.732 155.977 643.268 156.523 644.414 157.617C645.56 158.711 646.133 160.104 646.133 161.797C646.133 163.516 645.547 164.922 644.375 166.016C643.229 167.109 641.706 167.656 639.805 167.656C637.904 167.656 636.367 167.109 635.195 166.016C634.049 164.922 633.477 163.516 633.477 161.797ZM679.297 215C678.776 213.984 678.398 212.721 678.164 211.211C675.43 214.258 671.875 215.781 667.5 215.781C663.359 215.781 659.922 214.583 657.188 212.188C654.479 209.792 653.125 206.771 653.125 203.125C653.125 198.646 654.779 195.208 658.086 192.812C661.419 190.417 666.224 189.206 672.5 189.18H677.695V186.758C677.695 184.805 677.188 183.242 676.172 182.07C675.182 180.898 673.607 180.312 671.445 180.312C669.544 180.312 668.047 180.768 666.953 181.68C665.885 182.591 665.352 183.841 665.352 185.43H654.062C654.062 182.982 654.818 180.716 656.328 178.633C657.839 176.549 659.974 174.922 662.734 173.75C665.495 172.552 668.594 171.953 672.031 171.953C677.24 171.953 681.367 173.268 684.414 175.898C687.487 178.503 689.023 182.174 689.023 186.914V205.234C689.049 209.245 689.609 212.279 690.703 214.336V215H679.297ZM669.961 207.148C671.628 207.148 673.164 206.784 674.57 206.055C675.977 205.299 677.018 204.297 677.695 203.047V195.781H673.477C667.826 195.781 664.818 197.734 664.453 201.641L664.414 202.305C664.414 203.711 664.909 204.87 665.898 205.781C666.888 206.693 668.242 207.148 669.961 207.148ZM750.469 203.281H729.922L726.016 215H713.555L734.727 158.125H745.586L766.875 215H754.414L750.469 203.281ZM733.086 193.789H747.305L740.156 172.5L733.086 193.789ZM789.023 206.68C791.107 206.68 792.799 206.107 794.102 204.961C795.404 203.815 796.081 202.292 796.133 200.391H806.719C806.693 203.255 805.911 205.885 804.375 208.281C802.839 210.651 800.729 212.5 798.047 213.828C795.391 215.13 792.448 215.781 789.219 215.781C783.177 215.781 778.411 213.867 774.922 210.039C771.432 206.185 769.688 200.872 769.688 194.102V193.359C769.688 186.849 771.419 181.654 774.883 177.773C778.346 173.893 783.099 171.953 789.141 171.953C794.427 171.953 798.659 173.464 801.836 176.484C805.039 179.479 806.667 183.477 806.719 188.477H796.133C796.081 186.289 795.404 184.518 794.102 183.164C792.799 181.784 791.081 181.094 788.945 181.094C786.315 181.094 784.323 182.057 782.969 183.984C781.641 185.885 780.977 188.984 780.977 193.281V194.453C780.977 198.802 781.641 201.927 782.969 203.828C784.297 205.729 786.315 206.68 789.023 206.68ZM830.742 206.68C832.826 206.68 834.518 206.107 835.82 204.961C837.122 203.815 837.799 202.292 837.852 200.391H848.438C848.411 203.255 847.63 205.885 846.094 208.281C844.557 210.651 842.448 212.5 839.766 213.828C837.109 215.13 834.167 215.781 830.938 215.781C824.896 215.781 820.13 213.867 816.641 210.039C813.151 206.185 811.406 200.872 811.406 194.102V193.359C811.406 186.849 813.138 181.654 816.602 177.773C820.065 173.893 824.818 171.953 830.859 171.953C836.146 171.953 840.378 173.464 843.555 176.484C846.758 179.479 848.385 183.477 848.438 188.477H837.852C837.799 186.289 837.122 184.518 835.82 183.164C834.518 181.784 832.799 181.094 830.664 181.094C828.034 181.094 826.042 182.057 824.688 183.984C823.359 185.885 822.695 188.984 822.695 193.281V194.453C822.695 198.802 823.359 201.927 824.688 203.828C826.016 205.729 828.034 206.68 830.742 206.68ZM855.469 209.453C855.469 207.656 856.068 206.198 857.266 205.078C858.49 203.958 860.013 203.398 861.836 203.398C863.685 203.398 865.208 203.958 866.406 205.078C867.63 206.198 868.242 207.656 868.242 209.453C868.242 211.224 867.643 212.669 866.445 213.789C865.247 214.883 863.711 215.43 861.836 215.43C859.987 215.43 858.464 214.883 857.266 213.789C856.068 212.669 855.469 211.224 855.469 209.453Z" fill="white"/>
</g>
<defs>
<clipPath id="clip0">
<rect width="1280" height="427" fill="white"/>
</clipPath>
</defs>
</svg>
